<?xml version="1.0" standalone="no"?>
<!DOCTYPE svg PUBLIC "-//W3C//DTD SVG 20010904//EN"
 "http://www.w3.org/TR/2001/REC-SVG-20010904/DTD/svg10.dtd">
<svg version="1.0" xmlns="http://www.w3.org/2000/svg"
 width="50.000000pt" height="50.000000pt" viewBox="0 0 50.000000 50.000000"
 preserveAspectRatio="xMidYMid meet">

<g transform="translate(0.000000,50.000000) scale(0.100000,-0.100000)"
fill="#000000" stroke="none">
<path d="M164 461 c-88 -41 -130 -125 -121 -238 10 -128 83 -198 207 -198 85
0 135 25 175 90 27 44 30 56 30 135 0 79 -3 91 -30 135 -37 59 -88 88 -164 92
-40 3 -68 -2 -97 -16z m158 -88 c64 -57 63 -190 -2 -248 -33 -30 -110 -28
-144 4 -71 66 -56 215 25 259 31 17 95 9 121 -15z"/>
</g>
</svg>
