<?xml version="1.0" standalone="no"?>
<!DOCTYPE svg PUBLIC "-//W3C//DTD SVG 20010904//EN"
 "http://www.w3.org/TR/2001/REC-SVG-20010904/DTD/svg10.dtd">
<svg version="1.0" xmlns="http://www.w3.org/2000/svg"
 width="50.000000pt" height="50.000000pt" viewBox="0 0 50.000000 50.000000"
 preserveAspectRatio="xMidYMid meet">

<g transform="translate(0.000000,50.000000) scale(0.100000,-0.100000)"
fill="#000000" stroke="none">
<path d="M60 460 c0 -6 30 -55 67 -110 l66 -100 -66 -100 c-37 -55 -67 -104
-67 -110 0 -5 17 -10 38 -10 35 0 40 4 92 80 30 44 57 80 60 80 3 0 30 -36 60
-80 52 -76 57 -80 93 -80 20 0 37 5 37 10 0 6 -30 55 -67 110 l-66 100 66 100
c37 55 67 104 67 110 0 5 -17 10 -37 10 -36 0 -41 -4 -93 -80 -30 -44 -57 -80
-60 -80 -3 0 -30 36 -60 80 -52 76 -57 80 -92 80 -21 0 -38 -5 -38 -10z"/>
</g>
</svg>
