
<svg xmlns="http://www.w3.org/2000/svg" viewBox="0 0 512.662 512.662" style="enable-background:new 0 0 512.662 512.662" xml:space="preserve">
  <path d="M505.021 5.868c-.064-.043-.085-.107-.128-.149-.128-.107-.256-.128-.384-.235-1.131-.981-2.475-1.621-3.797-2.325-.427-.213-.747-.576-1.195-.768-.064-.021-.107-.021-.149-.043-.469-.192-.853-.533-1.323-.704-1.771-.661-3.648-.875-5.547-1.045-.576-.043-1.131-.299-1.707-.299-2.475-.021-4.971.384-7.403 1.259L14.055 172.225C6.61 174.934 1.276 181.548.188 189.398c-1.045 7.851 2.304 15.637 8.768 20.245l141.888 101.355 20.032 140.309c1.237 8.533 7.488 15.488 15.851 17.643 1.749.448 3.541.661 5.291.661 6.592 0 12.971-3.072 17.045-8.533l50.347-67.093 132.032 113.237c3.947 3.371 8.875 5.141 13.909 5.141 2.389 0 4.779-.405 7.125-1.216 7.168-2.56 12.48-8.768 13.845-16.277l85.995-468.928c1.409-7.68-1.578-15.232-7.295-20.074zM240.125 348.396l-1.536 2.219-32.747 43.669-12.395-86.827 185.109-160.448-138.431 201.387z"/>
</svg>